<svg width="265" height="80" viewBox="0 0 265 80" fill="none" xmlns="http://www.w3.org/2000/svg">
<rect width="264.8" height="80" rx="8" fill="black"/>
<path d="M94.808 56.456H85.496L83.896 61H80.088L88.056 38.728H92.28L100.248 61H96.408L94.808 56.456ZM93.784 53.48L90.168 43.144L86.52 53.48H93.784ZM106.401 45.96C107.019 45.1493 107.862 44.4667 108.929 43.912C109.995 43.3573 111.201 43.08 112.545 43.08C114.081 43.08 115.478 43.464 116.737 44.232C118.017 44.9787 119.019 46.0347 119.745 47.4C120.47 48.7653 120.833 50.3333 120.833 52.104C120.833 53.8747 120.47 55.464 119.745 56.872C119.019 58.2587 118.017 59.3467 116.737 60.136C115.478 60.904 114.081 61.288 112.545 61.288C111.201 61.288 110.006 61.0213 108.961 60.488C107.915 59.9333 107.062 59.2507 106.401 58.44V69.384H102.753V43.368H106.401V45.96ZM117.121 52.104C117.121 50.888 116.865 49.8427 116.353 48.968C115.862 48.072 115.201 47.4 114.369 46.952C113.558 46.4827 112.683 46.248 111.745 46.248C110.827 46.248 109.953 46.4827 109.121 46.952C108.31 47.4213 107.649 48.104 107.137 49C106.646 49.896 106.401 50.952 106.401 52.168C106.401 53.384 106.646 54.4507 107.137 55.368C107.649 56.264 108.31 56.9467 109.121 57.416C109.953 57.8853 110.827 58.12 111.745 58.12C112.683 58.12 113.558 57.8853 114.369 57.416C115.201 56.9253 115.862 56.2213 116.353 55.304C116.865 54.3867 117.121 53.32 117.121 52.104ZM127.128 45.96C127.747 45.1493 128.589 44.4667 129.656 43.912C130.723 43.3573 131.928 43.08 133.272 43.08C134.808 43.08 136.205 43.464 137.464 44.232C138.744 44.9787 139.747 46.0347 140.472 47.4C141.197 48.7653 141.56 50.3333 141.56 52.104C141.56 53.8747 141.197 55.464 140.472 56.872C139.747 58.2587 138.744 59.3467 137.464 60.136C136.205 60.904 134.808 61.288 133.272 61.288C131.928 61.288 130.733 61.0213 129.688 60.488C128.643 59.9333 127.789 59.2507 127.128 58.44V69.384H123.48V43.368H127.128V45.96ZM137.848 52.104C137.848 50.888 137.592 49.8427 137.08 48.968C136.589 48.072 135.928 47.4 135.096 46.952C134.285 46.4827 133.411 46.248 132.472 46.248C131.555 46.248 130.68 46.4827 129.848 46.952C129.037 47.4213 128.376 48.104 127.864 49C127.373 49.896 127.128 50.952 127.128 52.168C127.128 53.384 127.373 54.4507 127.864 55.368C128.376 56.264 129.037 56.9467 129.848 57.416C130.68 57.8853 131.555 58.12 132.472 58.12C133.411 58.12 134.285 57.8853 135.096 57.416C135.928 56.9253 136.589 56.2213 137.08 55.304C137.592 54.3867 137.848 53.32 137.848 52.104ZM158.888 61.224C157.395 61.224 156.051 60.968 154.856 60.456C153.661 59.9227 152.723 59.176 152.04 58.216C151.357 57.256 151.016 56.136 151.016 54.856H154.92C155.005 55.816 155.379 56.6053 156.04 57.224C156.723 57.8427 157.672 58.152 158.888 58.152C160.147 58.152 161.128 57.8533 161.832 57.256C162.536 56.6373 162.888 55.848 162.888 54.888C162.888 54.1413 162.664 53.5333 162.216 53.064C161.789 52.5947 161.245 52.232 160.584 51.976C159.944 51.72 159.048 51.4427 157.896 51.144C156.445 50.76 155.261 50.376 154.344 49.992C153.448 49.5867 152.68 48.968 152.04 48.136C151.4 47.304 151.08 46.1947 151.08 44.808C151.08 43.528 151.4 42.408 152.04 41.448C152.68 40.488 153.576 39.752 154.728 39.24C155.88 38.728 157.213 38.472 158.728 38.472C160.883 38.472 162.643 39.016 164.008 40.104C165.395 41.1707 166.163 42.6427 166.312 44.52H162.28C162.216 43.7093 161.832 43.016 161.128 42.44C160.424 41.864 159.496 41.576 158.344 41.576C157.299 41.576 156.445 41.8427 155.784 42.376C155.123 42.9093 154.792 43.6773 154.792 44.68C154.792 45.3627 154.995 45.928 155.4 46.376C155.827 46.8027 156.36 47.144 157 47.4C157.64 47.656 158.515 47.9333 159.624 48.232C161.096 48.6373 162.291 49.0427 163.208 49.448C164.147 49.8533 164.936 50.4827 165.576 51.336C166.237 52.168 166.568 53.288 166.568 54.696C166.568 55.8267 166.259 56.8933 165.64 57.896C165.043 58.8987 164.157 59.7093 162.984 60.328C161.832 60.9253 160.467 61.224 158.888 61.224ZM174.168 46.344V56.104C174.168 56.7653 174.318 57.2453 174.616 57.544C174.936 57.8213 175.47 57.96 176.216 57.96H178.456V61H175.576C173.934 61 172.675 60.616 171.8 59.848C170.926 59.08 170.488 57.832 170.488 56.104V46.344H168.408V43.368H170.488V38.984H174.168V43.368H178.456V46.344H174.168ZM188.507 61.288C186.843 61.288 185.339 60.9147 183.995 60.168C182.651 59.4 181.595 58.3333 180.827 56.968C180.059 55.5813 179.675 53.9813 179.675 52.168C179.675 50.376 180.069 48.7867 180.859 47.4C181.648 46.0133 182.725 44.9467 184.091 44.2C185.456 43.4533 186.981 43.08 188.667 43.08C190.352 43.08 191.877 43.4533 193.243 44.2C194.608 44.9467 195.685 46.0133 196.475 47.4C197.264 48.7867 197.659 50.376 197.659 52.168C197.659 53.96 197.253 55.5493 196.443 56.936C195.632 58.3227 194.523 59.4 193.115 60.168C191.728 60.9147 190.192 61.288 188.507 61.288ZM188.507 58.12C189.445 58.12 190.32 57.896 191.131 57.448C191.963 57 192.635 56.328 193.147 55.432C193.659 54.536 193.915 53.448 193.915 52.168C193.915 50.888 193.669 49.8107 193.179 48.936C192.688 48.04 192.037 47.368 191.227 46.92C190.416 46.472 189.541 46.248 188.603 46.248C187.664 46.248 186.789 46.472 185.979 46.92C185.189 47.368 184.56 48.04 184.091 48.936C183.621 49.8107 183.387 50.888 183.387 52.168C183.387 54.0667 183.867 55.5387 184.827 56.584C185.808 57.608 187.035 58.12 188.507 58.12ZM203.953 45.928C204.486 45.032 205.19 44.3387 206.065 43.848C206.961 43.336 208.017 43.08 209.233 43.08V46.856H208.305C206.876 46.856 205.788 47.2187 205.041 47.944C204.316 48.6693 203.953 49.928 203.953 51.72V61H200.305V43.368H203.953V45.928ZM227.786 51.752C227.786 52.4133 227.744 53.0107 227.658 53.544H214.186C214.293 54.952 214.816 56.0827 215.754 56.936C216.693 57.7893 217.845 58.216 219.21 58.216C221.173 58.216 222.56 57.3947 223.37 55.752H227.306C226.773 57.3733 225.802 58.7067 224.394 59.752C223.008 60.776 221.28 61.288 219.21 61.288C217.525 61.288 216.01 60.9147 214.666 60.168C213.344 59.4 212.298 58.3333 211.53 56.968C210.784 55.5813 210.41 53.9813 210.41 52.168C210.41 50.3547 210.773 48.7653 211.498 47.4C212.245 46.0133 213.28 44.9467 214.602 44.2C215.946 43.4533 217.482 43.08 219.21 43.08C220.874 43.08 222.357 43.4427 223.658 44.168C224.96 44.8933 225.973 45.9173 226.698 47.24C227.424 48.5413 227.786 50.0453 227.786 51.752ZM223.978 50.6C223.957 49.256 223.477 48.1787 222.538 47.368C221.6 46.5573 220.437 46.152 219.05 46.152C217.792 46.152 216.714 46.5573 215.818 47.368C214.922 48.1573 214.389 49.2347 214.218 50.6H223.978Z" fill="white"/>
<path d="M87.292 15.454C88.66 15.454 89.842 15.712 90.838 16.228C91.846 16.732 92.614 17.458 93.142 18.406C93.682 19.354 93.952 20.47 93.952 21.754C93.952 23.038 93.682 24.154 93.142 25.102C92.614 26.038 91.846 26.758 90.838 27.262C89.842 27.754 88.66 28 87.292 28H83.386V15.454H87.292ZM87.292 26.65C88.912 26.65 90.148 26.224 91 25.372C91.852 24.508 92.278 23.302 92.278 21.754C92.278 20.194 91.846 18.976 90.982 18.1C90.13 17.224 88.9 16.786 87.292 16.786H85.024V26.65H87.292ZM99.8746 28.162C98.9506 28.162 98.1106 27.952 97.3546 27.532C96.6106 27.112 96.0226 26.518 95.5906 25.75C95.1706 24.97 94.9606 24.07 94.9606 23.05C94.9606 22.042 95.1766 21.154 95.6086 20.386C96.0526 19.606 96.6526 19.012 97.4086 18.604C98.1646 18.184 99.0106 17.974 99.9466 17.974C100.883 17.974 101.729 18.184 102.485 18.604C103.241 19.012 103.835 19.6 104.267 20.368C104.711 21.136 104.933 22.03 104.933 23.05C104.933 24.07 104.705 24.97 104.249 25.75C103.805 26.518 103.199 27.112 102.431 27.532C101.663 27.952 100.811 28.162 99.8746 28.162ZM99.8746 26.722C100.463 26.722 101.015 26.584 101.531 26.308C102.047 26.032 102.461 25.618 102.773 25.066C103.097 24.514 103.259 23.842 103.259 23.05C103.259 22.258 103.103 21.586 102.791 21.034C102.479 20.482 102.071 20.074 101.567 19.81C101.063 19.534 100.517 19.396 99.9286 19.396C99.3286 19.396 98.7766 19.534 98.2726 19.81C97.7806 20.074 97.3846 20.482 97.0846 21.034C96.7846 21.586 96.6346 22.258 96.6346 23.05C96.6346 23.854 96.7786 24.532 97.0666 25.084C97.3666 25.636 97.7626 26.05 98.2546 26.326C98.7466 26.59 99.2866 26.722 99.8746 26.722ZM119.686 18.136L116.608 28H114.916L112.54 20.17L110.164 28H108.472L105.376 18.136H107.05L109.318 26.416L111.766 18.136H113.44L115.834 26.434L118.066 18.136H119.686ZM125.578 17.956C126.778 17.956 127.75 18.322 128.494 19.054C129.238 19.774 129.61 20.818 129.61 22.186V28H127.99V22.42C127.99 21.436 127.744 20.686 127.252 20.17C126.76 19.642 126.088 19.378 125.236 19.378C124.372 19.378 123.682 19.648 123.166 20.188C122.662 20.728 122.41 21.514 122.41 22.546V28H120.772V18.136H122.41V19.54C122.734 19.036 123.172 18.646 123.724 18.37C124.288 18.094 124.906 17.956 125.578 17.956ZM133.384 14.68V28H131.746V14.68H133.384ZM139.937 28.162C139.013 28.162 138.173 27.952 137.417 27.532C136.673 27.112 136.085 26.518 135.653 25.75C135.233 24.97 135.023 24.07 135.023 23.05C135.023 22.042 135.239 21.154 135.671 20.386C136.115 19.606 136.715 19.012 137.471 18.604C138.227 18.184 139.073 17.974 140.009 17.974C140.945 17.974 141.791 18.184 142.547 18.604C143.303 19.012 143.897 19.6 144.329 20.368C144.773 21.136 144.995 22.03 144.995 23.05C144.995 24.07 144.767 24.97 144.311 25.75C143.867 26.518 143.261 27.112 142.493 27.532C141.725 27.952 140.873 28.162 139.937 28.162ZM139.937 26.722C140.525 26.722 141.077 26.584 141.593 26.308C142.109 26.032 142.523 25.618 142.835 25.066C143.159 24.514 143.321 23.842 143.321 23.05C143.321 22.258 143.165 21.586 142.853 21.034C142.541 20.482 142.133 20.074 141.629 19.81C141.125 19.534 140.579 19.396 139.991 19.396C139.391 19.396 138.839 19.534 138.335 19.81C137.843 20.074 137.447 20.482 137.147 21.034C136.847 21.586 136.697 22.258 136.697 23.05C136.697 23.854 136.841 24.532 137.129 25.084C137.429 25.636 137.825 26.05 138.317 26.326C138.809 26.59 139.349 26.722 139.937 26.722ZM145.997 23.032C145.997 22.024 146.201 21.142 146.609 20.386C147.017 19.618 147.575 19.024 148.283 18.604C149.003 18.184 149.801 17.974 150.677 17.974C151.541 17.974 152.291 18.16 152.927 18.532C153.563 18.904 154.037 19.372 154.349 19.936V18.136H156.005V28H154.349V26.164C154.025 26.74 153.539 27.22 152.891 27.604C152.255 27.976 151.511 28.162 150.659 28.162C149.783 28.162 148.991 27.946 148.283 27.514C147.575 27.082 147.017 26.476 146.609 25.696C146.201 24.916 145.997 24.028 145.997 23.032ZM154.349 23.05C154.349 22.306 154.199 21.658 153.899 21.106C153.599 20.554 153.191 20.134 152.675 19.846C152.171 19.546 151.613 19.396 151.001 19.396C150.389 19.396 149.831 19.54 149.327 19.828C148.823 20.116 148.421 20.536 148.121 21.088C147.821 21.64 147.671 22.288 147.671 23.032C147.671 23.788 147.821 24.448 148.121 25.012C148.421 25.564 148.823 25.99 149.327 26.29C149.831 26.578 150.389 26.722 151.001 26.722C151.613 26.722 152.171 26.578 152.675 26.29C153.191 25.99 153.599 25.564 153.899 25.012C154.199 24.448 154.349 23.794 154.349 23.05ZM157.621 23.032C157.621 22.024 157.825 21.142 158.233 20.386C158.641 19.618 159.199 19.024 159.907 18.604C160.627 18.184 161.431 17.974 162.319 17.974C163.087 17.974 163.801 18.154 164.461 18.514C165.121 18.862 165.625 19.324 165.973 19.9V14.68H167.629V28H165.973V26.146C165.649 26.734 165.169 27.22 164.533 27.604C163.897 27.976 163.153 28.162 162.301 28.162C161.425 28.162 160.627 27.946 159.907 27.514C159.199 27.082 158.641 26.476 158.233 25.696C157.825 24.916 157.621 24.028 157.621 23.032ZM165.973 23.05C165.973 22.306 165.823 21.658 165.523 21.106C165.223 20.554 164.815 20.134 164.299 19.846C163.795 19.546 163.237 19.396 162.625 19.396C162.013 19.396 161.455 19.54 160.951 19.828C160.447 20.116 160.045 20.536 159.745 21.088C159.445 21.64 159.295 22.288 159.295 23.032C159.295 23.788 159.445 24.448 159.745 25.012C160.045 25.564 160.447 25.99 160.951 26.29C161.455 26.578 162.013 26.722 162.625 26.722C163.237 26.722 163.795 26.578 164.299 26.29C164.815 25.99 165.223 25.564 165.523 25.012C165.823 24.448 165.973 23.794 165.973 23.05ZM178.418 28.162C177.494 28.162 176.654 27.952 175.898 27.532C175.154 27.112 174.566 26.518 174.134 25.75C173.714 24.97 173.504 24.07 173.504 23.05C173.504 22.042 173.72 21.154 174.152 20.386C174.596 19.606 175.196 19.012 175.952 18.604C176.708 18.184 177.554 17.974 178.49 17.974C179.426 17.974 180.272 18.184 181.028 18.604C181.784 19.012 182.378 19.6 182.81 20.368C183.254 21.136 183.476 22.03 183.476 23.05C183.476 24.07 183.248 24.97 182.792 25.75C182.348 26.518 181.742 27.112 180.974 27.532C180.206 27.952 179.354 28.162 178.418 28.162ZM178.418 26.722C179.006 26.722 179.558 26.584 180.074 26.308C180.59 26.032 181.004 25.618 181.316 25.066C181.64 24.514 181.802 23.842 181.802 23.05C181.802 22.258 181.646 21.586 181.334 21.034C181.022 20.482 180.614 20.074 180.11 19.81C179.606 19.534 179.06 19.396 178.472 19.396C177.872 19.396 177.32 19.534 176.816 19.81C176.324 20.074 175.928 20.482 175.628 21.034C175.328 21.586 175.178 22.258 175.178 23.05C175.178 23.854 175.322 24.532 175.61 25.084C175.91 25.636 176.306 26.05 176.798 26.326C177.29 26.59 177.83 26.722 178.418 26.722ZM189.896 17.956C191.096 17.956 192.068 18.322 192.812 19.054C193.556 19.774 193.928 20.818 193.928 22.186V28H192.308V22.42C192.308 21.436 192.062 20.686 191.57 20.17C191.078 19.642 190.406 19.378 189.554 19.378C188.69 19.378 188 19.648 187.484 20.188C186.98 20.728 186.728 21.514 186.728 22.546V28H185.09V18.136H186.728V19.54C187.052 19.036 187.49 18.646 188.042 18.37C188.606 18.094 189.224 17.956 189.896 17.956ZM202.32 19.486V25.3C202.32 25.78 202.422 26.122 202.626 26.326C202.83 26.518 203.184 26.614 203.688 26.614H204.894V28H203.418C202.506 28 201.822 27.79 201.366 27.37C200.91 26.95 200.682 26.26 200.682 25.3V19.486H199.404V18.136H200.682V15.652H202.32V18.136H204.894V19.486H202.32ZM211.235 17.956C211.979 17.956 212.651 18.118 213.251 18.442C213.851 18.754 214.319 19.228 214.655 19.864C215.003 20.5 215.177 21.274 215.177 22.186V28H213.557V22.42C213.557 21.436 213.311 20.686 212.819 20.17C212.327 19.642 211.655 19.378 210.803 19.378C209.939 19.378 209.249 19.648 208.733 20.188C208.229 20.728 207.977 21.514 207.977 22.546V28H206.339V14.68H207.977V19.54C208.301 19.036 208.745 18.646 209.309 18.37C209.885 18.094 210.527 17.956 211.235 17.956ZM226.312 22.69C226.312 23.002 226.294 23.332 226.258 23.68H218.374C218.434 24.652 218.764 25.414 219.364 25.966C219.976 26.506 220.714 26.776 221.578 26.776C222.286 26.776 222.874 26.614 223.342 26.29C223.822 25.954 224.158 25.51 224.35 24.958H226.114C225.85 25.906 225.322 26.68 224.53 27.28C223.738 27.868 222.754 28.162 221.578 28.162C220.642 28.162 219.802 27.952 219.058 27.532C218.326 27.112 217.75 26.518 217.33 25.75C216.91 24.97 216.7 24.07 216.7 23.05C216.7 22.03 216.904 21.136 217.312 20.368C217.72 19.6 218.29 19.012 219.022 18.604C219.766 18.184 220.618 17.974 221.578 17.974C222.514 17.974 223.342 18.178 224.062 18.586C224.782 18.994 225.334 19.558 225.718 20.278C226.114 20.986 226.312 21.79 226.312 22.69ZM224.62 22.348C224.62 21.724 224.482 21.19 224.206 20.746C223.93 20.29 223.552 19.948 223.072 19.72C222.604 19.48 222.082 19.36 221.506 19.36C220.678 19.36 219.97 19.624 219.382 20.152C218.806 20.68 218.476 21.412 218.392 22.348H224.62Z" fill="white"/>
<path fill-rule="evenodd" clip-rule="evenodd" d="M57.2421 41.7496C57.1813 35.3822 62.4446 32.3135 62.6821 32.1681C59.7266 27.8352 55.1155 27.242 53.4733 27.1727C49.5533 26.7791 45.823 29.4837 43.8328 29.4837C41.8479 29.4837 38.7747 27.2326 35.5262 27.2967C31.2488 27.3561 27.3086 29.7798 25.1064 33.6058C20.6683 41.3117 23.9719 52.7241 28.2999 58.9756C30.4122 62.0282 32.937 65.4719 36.2477 65.3475C39.4413 65.2223 40.6437 63.2879 44.4953 63.2879C48.3499 63.2879 49.4325 65.3475 52.8103 65.2839C56.2374 65.2223 58.4164 62.166 60.5157 59.1009C62.9425 55.5504 63.9418 52.1135 64 51.935C63.9262 51.9082 57.3114 49.3687 57.2421 41.7496L57.2421 41.7496Z" fill="white"/>
<path fill-rule="evenodd" clip-rule="evenodd" d="M50.9076 23.0422C52.6669 20.9097 53.8474 17.9506 53.524 15C50.9916 15.1006 47.9211 16.6904 46.1072 18.8162C44.4766 20.7026 43.0496 23.715 43.4366 26.6038C46.2615 26.8235 49.1473 25.1706 50.9076 23.0422Z" fill="white"/>
</svg>
