<svg width="100" height="100" viewBox="0 0 100 100" fill="none" xmlns="http://www.w3.org/2000/svg">
<path fill-rule="evenodd" clip-rule="evenodd" d="M50.015 39.943V99.9969C50.015 99.9969 85.2004 85.92 99.9459 80.0369L99.9873 79.9707V19.9561L99.9459 20.03L50.0594 39.9899L50.015 39.943Z" fill="#FFB23A"/>
<path fill-rule="evenodd" clip-rule="evenodd" d="M0.0826087 19.951L0.124063 20.0245L50.0142 39.9876V100L0.124063 80.0369L0.0826087 79.9634V19.951Z" fill="#C9831F"/>
<path fill-rule="evenodd" clip-rule="evenodd" d="M50.8484 0L100 19.9581V20.0087L50.0154 40.0606L0 19.9583L49.4987 0.000112661H50.0154H50.8484V0Z" fill="#EC9E2F"/>
<path d="M16.5452 74.0108L29.0167 79.0004L41.4883 83.9899M29.0167 71.0199L41.4883 76.009" stroke="#0C235D" stroke-width="0.90822" stroke-linecap="round" stroke-linejoin="round"/>
<path fill-rule="evenodd" clip-rule="evenodd" d="M34.5924 6.03058L34.9003 6.13627L84.5498 26.2064V54.3942L75.7353 50.3294L67.0396 62.5237L67.0483 33.2334L17.3882 12.9533L34.5924 6.03058Z" fill="#0C235D"/>
</svg>
