<svg width="112" height="103" viewBox="0 0 112 103" fill="none" xmlns="http://www.w3.org/2000/svg">
<path d="M18 77C18 64.0044 22.6884 51.5411 31.0338 42.3518C39.3791 33.1625 50.6979 28 62.5 28C74.3021 28 85.6209 33.1625 93.9662 42.3518C102.312 51.5411 107 64.0044 107 77H18Z" fill="#FFB23A"/>
<path d="M18.006 77C17.5046 50.6682 48.4499 26.1637 60 30.5014L57.0709 33.1546C52.0669 37.6873 48.3931 43.2779 46.189 49.3633C41.5212 62.2506 31.7126 77 18.006 77Z" fill="#FFA416"/>
<path d="M19 77C19 70.5653 20.1382 64.1935 22.3493 58.2485C24.5606 52.3036 27.8016 46.9018 31.8873 42.3518C35.9731 37.8017 40.8237 34.1924 46.162 31.7299C51.5002 29.2674 57.2218 28 63 28C68.7782 28 74.4998 29.2674 79.8381 31.7299C85.1763 34.1924 90.0269 37.8017 94.1127 42.3518C98.1984 46.9018 101.439 52.3036 103.651 58.2485C105.862 64.1935 107 70.5653 107 77H104.706C104.706 70.9008 103.627 64.8612 101.531 59.2263C99.4351 53.5913 96.3631 48.4712 92.4903 44.1584C88.6176 39.8456 84.02 36.4245 78.9601 34.0904C73.9001 31.7563 68.4768 30.555 63 30.555C57.5232 30.555 52.0999 31.7563 47.04 34.0904C41.98 36.4245 37.3824 39.8456 33.5097 44.1584C29.6369 48.4712 26.5649 53.5913 24.469 59.2263C22.373 64.8612 21.2944 70.9007 21.2944 77H19Z" fill="#FFA416"/>
<path d="M68.2769 26.0972C68.2769 29.4652 65.9763 28.1829 63.138 28.1829C60.3002 28.1829 58 29.4654 58 26.0972C58 22.73 60.3002 20 63.138 20C65.9763 20.0002 68.2769 22.73 68.2769 26.0972Z" fill="#FFB23A"/>
<path d="M44.1924 82.5C44.1924 81.6716 44.864 81 45.6924 81H105.381C106.21 81 106.881 81.6716 106.881 82.5C106.881 83.3284 106.21 84 105.381 84H45.6924C44.864 84 44.1924 83.3284 44.1924 82.5Z" fill="#0C235D"/>
<path d="M73.8851 37.5906C73.8985 36.7416 74.6473 36.0889 75.4803 36.2538C80.8151 37.3095 85.872 40.293 89.848 44.7625C93.9096 49.3282 96.5836 55.1531 97.453 61.2763C97.5578 62.0142 96.9792 62.6602 96.2339 62.6723C95.569 62.6831 95.0103 62.1809 94.9182 61.5222C94.1499 56.0271 91.7554 50.7977 88.1118 46.7018C84.5228 42.6672 79.9483 39.9872 75.1276 39.0685C74.4129 38.9322 73.8736 38.3181 73.8851 37.5906Z" fill="white"/>
<path d="M27 22.0408L29.9146 17.9427C30.9776 16.4481 31.1611 14.328 30.3776 12.5951L28.8072 9.12204C27.617 6.48954 27.9881 3.25432 29.7255 1.11614C30.4288 0.250531 31.4463 -0.147883 32.4487 0.0497513L32.4891 0.0577145C30.3552 2.75424 29.8716 6.75743 31.278 10.0823L31.6372 10.9312C32.8825 13.8752 32.3927 17.4273 30.4246 19.7234L28.2306 22.2834L27 22.0408Z" fill="#0C235D"/>
<path d="M18.0605 43.2293L21.1432 38.3304C22.2679 36.5432 22.4804 34.1635 21.6976 32.1227L20.0528 27.8338C18.929 24.9037 19.3257 21.4752 21.0709 19.0335L21.3438 18.6517C22.0213 17.7039 23.0687 17.2494 24.1047 17.4537C21.8206 20.7311 21.2701 25.2591 22.6772 29.1956L23.018 30.1489C24.2607 33.6256 23.7089 37.6312 21.6013 40.4332L19.3125 43.4761L18.0605 43.2293Z" fill="#0C235D"/>
<path d="M27 50.8237L30.0826 45.9248C31.2073 44.1377 31.4199 41.758 30.6371 39.7172L28.9923 35.4283C27.8685 32.4981 28.2652 29.0697 30.0104 26.628L30.2832 26.2462C30.9608 25.2984 32.0081 24.8439 33.0441 25.0481C30.7601 28.3256 30.2096 32.8536 31.6167 36.7901L31.9574 37.7434C33.2001 41.2201 32.6484 45.2257 30.5408 48.0276L28.2519 51.0706L27 50.8237Z" fill="#0C235D"/>
<path d="M107.074 77H44.1924V79.6226H107.074V77Z" fill="#FFB23A"/>
<path d="M107.074 84.8677H44.1924V87.4903H107.074V84.8677Z" fill="#FFB23A"/>
<path d="M107.058 77.0374C107.618 77.0422 108.172 77.1804 108.687 77.4441C109.203 77.7077 109.67 78.0915 110.063 78.5737C110.456 79.0559 110.767 79.627 110.977 80.2543C111.188 80.8816 111.294 81.553 111.29 82.23C111.286 82.907 111.171 83.5765 110.954 84.2C110.736 84.8237 110.418 85.3892 110.02 85.8645C109.621 86.3398 109.149 86.7154 108.63 86.9699C108.111 87.2244 107.63 87.4953 107.071 87.4904V84.8677C107.351 84.8703 107.57 84.71 107.829 84.5827C108.089 84.4554 108.325 84.2675 108.524 84.0297C108.724 83.7919 108.883 83.5089 108.992 83.197C109.101 82.885 109.158 82.55 109.16 82.2114C109.162 81.8727 109.109 81.5369 109.003 81.223C108.898 80.9091 108.743 80.6235 108.546 80.3821C108.35 80.1409 108.116 79.9489 107.858 79.817C107.6 79.6852 107.323 79.616 107.043 79.6136L107.058 77.0374Z" fill="#FFB23A"/>
<path d="M40.0979 75H26.5649C25.8597 75 25.2418 74.3836 25.0555 73.4941C24.8696 72.605 25.1618 71.6628 25.7687 71.1936C31.6652 66.6389 34.7275 61.326 35.132 54.9509C35.2731 52.7385 36.7801 50.9712 38.4913 51.0004C40.2373 51.0369 41.8727 51.9516 43.0981 53.577C44.3239 55.2035 44.9991 57.3582 45 59.6419C45 59.6419 45 59.6423 45 59.643V60.33C45 65.9107 43.7359 69.4685 41.4027 74.0823C41.1132 74.6561 40.6235 75 40.0979 75Z" fill="#FFDAAA"/>
<path d="M16.2913 71H1.70879C0.765754 71 0 71.7516 0 72.6773V101.302C0 102.228 0.765582 102.979 1.70879 103H12.6459C14.7407 102.979 16.5578 101.792 17.4361 100.068C17.7973 99.3627 18 98.5656 18 97.7233V72.6773C18 71.7516 17.2342 71 16.2913 71Z" fill="#0C235D"/>
<path d="M16 82.4997C16 85.5375 13.3136 88 9.99948 88C6.68597 88 4 85.5377 4 82.4997C4 79.4625 6.68597 77 9.99948 77C13.3136 77.0002 16 79.4625 16 82.4997Z" fill="#FFB23A"/>
<path d="M58 76.2516C58 73.3561 55.6959 71 52.8634 71H26.4434C26.15 71 25.8616 71.0809 25.6093 71.2333C23.7546 72.3548 21.8819 73.2772 20.3772 74.0193C19.8526 74.278 19.3569 74.5222 18.9062 74.7528C18.3507 75.037 18 75.6168 18 76.2518V97.7058C18 98.3406 18.3507 98.921 18.9062 99.205C25.5299 102.591 31.0362 103 37.4571 103C38.4514 103 39.4686 102.99 40.5138 102.98C41.6705 102.969 42.8663 102.957 44.1202 102.957H49.3026C52.1349 102.957 54.4393 100.602 54.4393 97.7058C54.4393 96.7318 54.1785 95.8194 53.7257 95.0369C55.2017 94.1133 56.1882 92.4496 56.1882 90.5543C56.1882 89.5804 55.9273 88.668 55.4741 87.8854C56.9502 86.9616 57.9368 85.2982 57.9368 83.403C57.9368 82.0408 57.4271 80.7983 56.5921 79.8644C57.501 78.8853 58 77.6078 58 76.2516Z" fill="#FFDAAA"/>
</svg>
