<svg width="265" height="80" viewBox="0 0 265 80" fill="none" xmlns="http://www.w3.org/2000/svg">
<rect width="264.8" height="80" rx="8" fill="black"/>
<path d="M45 39.48L21.7082 65C21.1607 64.4212 20.7268 63.725 20.4331 62.9545C20.1394 62.1841 19.9921 61.3555 20.0003 60.52V20.52C19.9964 19.6719 20.1526 18.8322 20.4592 18.0541C20.7657 17.276 21.2157 16.5765 21.7808 16L45 39.48Z" fill="url(#paint0_linear_36_62)"/>
<path d="M65 40.5368C64.9935 41.6682 64.711 42.7764 64.1826 43.7429C63.6542 44.7094 62.8998 45.4978 62 46.0239L55.4643 50L47.3571 41.7296L45 39.503L53.6071 30L61.8929 35.0497C62.8126 35.5596 63.5889 36.341 64.1368 37.3087C64.6848 38.2763 64.9834 39.393 65 40.5368Z" fill="url(#paint1_linear_36_62)"/>
<path d="M45.1574 39L22 15.7747C22.3337 15.4447 22.6981 15.1535 23.0872 14.9058C24.0226 14.3125 25.0854 14 26.1676 14C27.2498 14 28.3127 14.3125 29.248 14.9058L54 29.6388L45.1574 39Z" fill="url(#paint2_linear_36_62)"/>
<path d="M56 49.816L29.3533 66.1421C28.4245 66.7023 27.3866 66.9968 26.3319 66.9993C25.2145 67.018 24.1157 66.6781 23.1649 66.0197C22.7471 65.7398 22.3566 65.4115 22 65.0401L45.334 39L47.6274 41.3265L56 49.816Z" fill="url(#paint3_linear_36_62)"/>
<path d="M94.15 44.15C93.57 42.93 92.73 41.99 91.63 41.33C90.53 40.65 89.25 40.31 87.79 40.31C86.33 40.31 85.01 40.65 83.83 41.33C82.67 41.99 81.75 42.95 81.07 44.21C80.41 45.45 80.08 46.89 80.08 48.53C80.08 50.17 80.41 51.61 81.07 52.85C81.75 54.09 82.67 55.05 83.83 55.73C85.01 56.39 86.33 56.72 87.79 56.72C89.83 56.72 91.51 56.11 92.83 54.89C94.15 53.67 94.92 52.02 95.14 49.94H86.8V47.72H98.05V49.82C97.89 51.54 97.35 53.12 96.43 54.56C95.51 55.98 94.3 57.11 92.8 57.95C91.3 58.77 89.63 59.18 87.79 59.18C85.85 59.18 84.08 58.73 82.48 57.83C80.88 56.91 79.61 55.64 78.67 54.02C77.75 52.4 77.29 50.57 77.29 48.53C77.29 46.49 77.75 44.66 78.67 43.04C79.61 41.4 80.88 40.13 82.48 39.23C84.08 38.31 85.85 37.85 87.79 37.85C90.01 37.85 91.97 38.4 93.67 39.5C95.39 40.6 96.64 42.15 97.42 44.15H94.15ZM107.93 59.27C106.39 59.27 104.99 58.92 103.73 58.22C102.49 57.52 101.51 56.53 100.79 55.25C100.09 53.95 99.7396 52.45 99.7396 50.75C99.7396 49.07 100.1 47.59 100.82 46.31C101.56 45.01 102.56 44.02 103.82 43.34C105.08 42.64 106.49 42.29 108.05 42.29C109.61 42.29 111.02 42.64 112.28 43.34C113.54 44.02 114.53 45 115.25 46.28C115.99 47.56 116.36 49.05 116.36 50.75C116.36 52.45 115.98 53.95 115.22 55.25C114.48 56.53 113.47 57.52 112.19 58.22C110.91 58.92 109.49 59.27 107.93 59.27ZM107.93 56.87C108.91 56.87 109.83 56.64 110.69 56.18C111.55 55.72 112.24 55.03 112.76 54.11C113.3 53.19 113.57 52.07 113.57 50.75C113.57 49.43 113.31 48.31 112.79 47.39C112.27 46.47 111.59 45.79 110.75 45.35C109.91 44.89 109 44.66 108.02 44.66C107.02 44.66 106.1 44.89 105.26 45.35C104.44 45.79 103.78 46.47 103.28 47.39C102.78 48.31 102.53 49.43 102.53 50.75C102.53 52.09 102.77 53.22 103.25 54.14C103.75 55.06 104.41 55.75 105.23 56.21C106.05 56.65 106.95 56.87 107.93 56.87ZM126.219 59.27C124.679 59.27 123.279 58.92 122.019 58.22C120.779 57.52 119.799 56.53 119.079 55.25C118.379 53.95 118.029 52.45 118.029 50.75C118.029 49.07 118.389 47.59 119.109 46.31C119.849 45.01 120.849 44.02 122.109 43.34C123.369 42.64 124.779 42.29 126.339 42.29C127.899 42.29 129.309 42.64 130.569 43.34C131.829 44.02 132.819 45 133.539 46.28C134.279 47.56 134.649 49.05 134.649 50.75C134.649 52.45 134.269 53.95 133.509 55.25C132.769 56.53 131.759 57.52 130.479 58.22C129.199 58.92 127.779 59.27 126.219 59.27ZM126.219 56.87C127.199 56.87 128.119 56.64 128.979 56.18C129.839 55.72 130.529 55.03 131.049 54.11C131.589 53.19 131.859 52.07 131.859 50.75C131.859 49.43 131.599 48.31 131.079 47.39C130.559 46.47 129.879 45.79 129.039 45.35C128.199 44.89 127.289 44.66 126.309 44.66C125.309 44.66 124.389 44.89 123.549 45.35C122.729 45.79 122.069 46.47 121.569 47.39C121.069 48.31 120.819 49.43 120.819 50.75C120.819 52.09 121.059 53.22 121.539 54.14C122.039 55.06 122.699 55.75 123.519 56.21C124.339 56.65 125.239 56.87 126.219 56.87ZM144.119 42.29C145.539 42.29 146.779 42.6 147.839 43.22C148.919 43.84 149.719 44.62 150.239 45.56V42.56H152.999V59.36C152.999 60.86 152.679 62.19 152.039 63.35C151.399 64.53 150.479 65.45 149.279 66.11C148.099 66.77 146.719 67.1 145.139 67.1C142.979 67.1 141.179 66.59 139.739 65.57C138.299 64.55 137.449 63.16 137.189 61.4H139.889C140.189 62.4 140.809 63.2 141.749 63.8C142.689 64.42 143.819 64.73 145.139 64.73C146.639 64.73 147.859 64.26 148.799 63.32C149.759 62.38 150.239 61.06 150.239 59.36V55.91C149.699 56.87 148.899 57.67 147.839 58.31C146.779 58.95 145.539 59.27 144.119 59.27C142.659 59.27 141.329 58.91 140.129 58.19C138.949 57.47 138.019 56.46 137.339 55.16C136.659 53.86 136.319 52.38 136.319 50.72C136.319 49.04 136.659 47.57 137.339 46.31C138.019 45.03 138.949 44.04 140.129 43.34C141.329 42.64 142.659 42.29 144.119 42.29ZM150.239 50.75C150.239 49.51 149.989 48.43 149.489 47.51C148.989 46.59 148.309 45.89 147.449 45.41C146.609 44.91 145.679 44.66 144.659 44.66C143.639 44.66 142.709 44.9 141.869 45.38C141.029 45.86 140.359 46.56 139.859 47.48C139.359 48.4 139.109 49.48 139.109 50.72C139.109 51.98 139.359 53.08 139.859 54.02C140.359 54.94 141.029 55.65 141.869 56.15C142.709 56.63 143.639 56.87 144.659 56.87C145.679 56.87 146.609 56.63 147.449 56.15C148.309 55.65 148.989 54.94 149.489 54.02C149.989 53.08 150.239 51.99 150.239 50.75ZM159.442 36.8V59H156.712V36.8H159.442ZM178.195 50.15C178.195 50.67 178.165 51.22 178.105 51.8H164.965C165.065 53.42 165.615 54.69 166.615 55.61C167.635 56.51 168.865 56.96 170.305 56.96C171.485 56.96 172.465 56.69 173.245 56.15C174.045 55.59 174.605 54.85 174.925 53.93H177.865C177.425 55.51 176.545 56.8 175.225 57.8C173.905 58.78 172.265 59.27 170.305 59.27C168.745 59.27 167.345 58.92 166.105 58.22C164.885 57.52 163.925 56.53 163.225 55.25C162.525 53.95 162.175 52.45 162.175 50.75C162.175 49.05 162.515 47.56 163.195 46.28C163.875 45 164.825 44.02 166.045 43.34C167.285 42.64 168.705 42.29 170.305 42.29C171.865 42.29 173.245 42.63 174.445 43.31C175.645 43.99 176.565 44.93 177.205 46.13C177.865 47.31 178.195 48.65 178.195 50.15ZM175.375 49.58C175.375 48.54 175.145 47.65 174.685 46.91C174.225 46.15 173.595 45.58 172.795 45.2C172.015 44.8 171.145 44.6 170.185 44.6C168.805 44.6 167.625 45.04 166.645 45.92C165.685 46.8 165.135 48.02 164.995 49.58H175.375ZM201.976 44.21C201.976 45.95 201.376 47.4 200.176 48.56C198.996 49.7 197.186 50.27 194.746 50.27H190.726V59H187.996V38.09H194.746C197.106 38.09 198.896 38.66 200.116 39.8C201.356 40.94 201.976 42.41 201.976 44.21ZM194.746 48.02C196.266 48.02 197.386 47.69 198.106 47.03C198.826 46.37 199.186 45.43 199.186 44.21C199.186 41.63 197.706 40.34 194.746 40.34H190.726V48.02H194.746ZM207.199 36.8V59H204.469V36.8H207.199ZM209.932 50.72C209.932 49.04 210.272 47.57 210.952 46.31C211.632 45.03 212.562 44.04 213.742 43.34C214.942 42.64 216.272 42.29 217.732 42.29C219.172 42.29 220.422 42.6 221.482 43.22C222.542 43.84 223.332 44.62 223.852 45.56V42.56H226.612V59H223.852V55.94C223.312 56.9 222.502 57.7 221.422 58.34C220.362 58.96 219.122 59.27 217.702 59.27C216.242 59.27 214.922 58.91 213.742 58.19C212.562 57.47 211.632 56.46 210.952 55.16C210.272 53.86 209.932 52.38 209.932 50.72ZM223.852 50.75C223.852 49.51 223.602 48.43 223.102 47.51C222.602 46.59 221.922 45.89 221.062 45.41C220.222 44.91 219.292 44.66 218.272 44.66C217.252 44.66 216.322 44.9 215.482 45.38C214.642 45.86 213.972 46.56 213.472 47.48C212.972 48.4 212.722 49.48 212.722 50.72C212.722 51.98 212.972 53.08 213.472 54.02C213.972 54.94 214.642 55.65 215.482 56.15C216.322 56.63 217.252 56.87 218.272 56.87C219.292 56.87 220.222 56.63 221.062 56.15C221.922 55.65 222.602 54.94 223.102 54.02C223.602 53.08 223.852 51.99 223.852 50.75ZM244.486 42.56L234.586 66.74H231.766L235.006 58.82L228.376 42.56H231.406L236.566 55.88L241.666 42.56H244.486Z" fill="white"/>
<path d="M88.89 19.09C88.542 18.358 88.038 17.794 87.378 17.398C86.718 16.99 85.95 16.786 85.074 16.786C84.198 16.786 83.406 16.99 82.698 17.398C82.002 17.794 81.45 18.37 81.042 19.126C80.646 19.87 80.448 20.734 80.448 21.718C80.448 22.702 80.646 23.566 81.042 24.31C81.45 25.054 82.002 25.63 82.698 26.038C83.406 26.434 84.198 26.632 85.074 26.632C86.298 26.632 87.306 26.266 88.098 25.534C88.89 24.802 89.352 23.812 89.484 22.564H84.48V21.232H91.23V22.492C91.134 23.524 90.81 24.472 90.258 25.336C89.706 26.188 88.98 26.866 88.08 27.37C87.18 27.862 86.178 28.108 85.074 28.108C83.91 28.108 82.848 27.838 81.888 27.298C80.928 26.746 80.166 25.984 79.602 25.012C79.05 24.04 78.774 22.942 78.774 21.718C78.774 20.494 79.05 19.396 79.602 18.424C80.166 17.44 80.928 16.678 81.888 16.138C82.848 15.586 83.91 15.31 85.074 15.31C86.406 15.31 87.582 15.64 88.602 16.3C89.634 16.96 90.384 17.89 90.852 19.09H88.89ZM94.4938 16.786V20.98H99.0658V22.33H94.4938V26.65H99.6058V28H92.8558V15.436H99.6058V16.786H94.4938ZM109.266 15.454V16.786H105.846V28H104.208V16.786H100.77V15.454H109.266ZM116.639 15.454V28H115.001V15.454H116.639ZM126.613 15.454V16.786H123.193V28H121.555V16.786H118.117V15.454H126.613ZM138.036 28.126C136.872 28.126 135.81 27.856 134.85 27.316C133.89 26.764 133.128 26.002 132.564 25.03C132.012 24.046 131.736 22.942 131.736 21.718C131.736 20.494 132.012 19.396 132.564 18.424C133.128 17.44 133.89 16.678 134.85 16.138C135.81 15.586 136.872 15.31 138.036 15.31C139.212 15.31 140.28 15.586 141.24 16.138C142.2 16.678 142.956 17.434 143.508 18.406C144.06 19.378 144.336 20.482 144.336 21.718C144.336 22.954 144.06 24.058 143.508 25.03C142.956 26.002 142.2 26.764 141.24 27.316C140.28 27.856 139.212 28.126 138.036 28.126ZM138.036 26.704C138.912 26.704 139.698 26.5 140.394 26.092C141.102 25.684 141.654 25.102 142.05 24.346C142.458 23.59 142.662 22.714 142.662 21.718C142.662 20.71 142.458 19.834 142.05 19.09C141.654 18.334 141.108 17.752 140.412 17.344C139.716 16.936 138.924 16.732 138.036 16.732C137.148 16.732 136.356 16.936 135.66 17.344C134.964 17.752 134.412 18.334 134.004 19.09C133.608 19.834 133.41 20.71 133.41 21.718C133.41 22.714 133.608 23.59 134.004 24.346C134.412 25.102 134.964 25.684 135.66 26.092C136.368 26.5 137.16 26.704 138.036 26.704ZM155.823 28H154.185L147.597 18.01V28H145.959V15.436H147.597L154.185 25.408V15.436H155.823V28Z" fill="white"/>
<defs>
<linearGradient id="paint0_linear_36_62" x1="32.5728" y1="63.36" x2="32.5728" y2="17.76" gradientUnits="userSpaceOnUse">
<stop stop-color="#00E4FF"/>
<stop offset="0.99" stop-color="#00CCFF"/>
</linearGradient>
<linearGradient id="paint1_linear_36_62" x1="45.1071" y1="40.0199" x2="65" y2="40.0199" gradientUnits="userSpaceOnUse">
<stop offset="0.01" stop-color="#FFBC00"/>
<stop offset="1" stop-color="#FFE100"/>
</linearGradient>
<linearGradient id="paint2_linear_36_62" x1="37.9819" y1="39" x2="37.9819" y2="13.9578" gradientUnits="userSpaceOnUse">
<stop stop-color="#00F055"/>
<stop offset="0.99" stop-color="#00E05A"/>
</linearGradient>
<linearGradient id="paint3_linear_36_62" x1="39" y1="66.9993" x2="39" y2="39" gradientUnits="userSpaceOnUse">
<stop offset="0.01" stop-color="#DE1646"/>
<stop offset="1" stop-color="#FF2B43"/>
</linearGradient>
</defs>
</svg>
